HIERARCHY
ROOT Hips
{
	OFFSET 0.000000 0.000000 0.000000
	CHANNELS 6 Xposition Yposition Zposition Zrotation Yrotation Xrotation 
	JOINT LHipJoint
	{
		OFFSET 0.000000 0.000000 0.000000
		CHANNELS 3 Zrotation Yrotation Xrotation
		JOINT LeftUpLeg
		{
			OFFSET 1.363060 -1.794630 0.839290
			CHANNELS 3 Zrotation Yrotation Xrotation
			JOINT LeftLeg
			{
				OFFSET 2.448110 -6.726130 0.000000
				CHANNELS 3 Zrotation Yrotation Xrotation
				JOINT LeftFoot
				{
					OFFSET 2.562200 -7.039590 0.000000
					CHANNELS 3 Zrotation Yrotation Xrotation
					JOINT LeftToeBase
					{
						OFFSET 0.157640 -0.433110 2.322550
						CHANNELS 3 Zrotation Yrotation Xrotation
						End Site
						{
							OFFSET 0.000000 0.000000 0.000000
						}
					}
				}
			}
		}
	}
	JOINT RHipJoint
	{
		OFFSET 0.000000 0.000000 0.000000
		CHANNELS 3 Zrotation Yrotation Xrotation
		JOINT RightUpLeg
		{
			OFFSET -1.305520 -1.794630 0.839290
			CHANNELS 3 Zrotation Yrotation Xrotation
			JOINT RightLeg
			{
				OFFSET -2.542530 -6.985550 0.000000
				CHANNELS 3 Zrotation Yrotation Xrotation
				JOINT RightFoot
				{
					OFFSET -2.568260 -7.056230 0.000000
					CHANNELS 3 Zrotation Yrotation Xrotation
					JOINT RightToeBase
					{
						OFFSET -0.164730 -0.452590 2.363150
						CHANNELS 3 Zrotation Yrotation Xrotation
						End Site
						{
							OFFSET 0.000000 0.000000 0.000000
						}
					}
				}
			}
		}
	}
	JOINT LowerBack
	{
		OFFSET 0.000000 0.000000 0.000000
		CHANNELS 3 Zrotation Yrotation Xrotation
		JOINT Spine
		{
			OFFSET 0.028270 2.035590 -0.193380
			CHANNELS 3 Zrotation Yrotation Xrotation
			JOINT Spine1
			{
				OFFSET 0.056720 2.048850 -0.042750
				CHANNELS 3 Zrotation Yrotation Xrotation
				JOINT Neck
				{
					OFFSET 0.000000 0.000000 0.000000
					CHANNELS 3 Zrotation Yrotation Xrotation
					JOINT Neck1
					{
						OFFSET -0.054170 1.746240 0.172020
						CHANNELS 3 Zrotation Yrotation Xrotation
						JOINT Head
						{
							OFFSET 0.104070 1.761360 -0.123970
							CHANNELS 3 Zrotation Yrotation Xrotation
							End Site
							{
								OFFSET 0.000000 0.000000 0.000000
							}
						}
					}
				}
				JOINT LeftShoulder
				{
					OFFSET 0.000000 0.000000 0.000000
					CHANNELS 3 Zrotation Yrotation Xrotation
					JOINT LeftArm
					{
						OFFSET 3.362410 1.200890 -0.311210
						CHANNELS 3 Zrotation Yrotation Xrotation
						JOINT LeftForeArm
						{
							OFFSET 4.983000 -0.000000 -0.000000
							CHANNELS 3 Zrotation Yrotation Xrotation
							JOINT LeftHand
							{
								OFFSET 3.483560 -0.000000 -0.000000
								CHANNELS 3 Zrotation Yrotation Xrotation
								JOINT LeftFingerBase
								{
									OFFSET 0.000000 0.000000 0.000000
									CHANNELS 3 Zrotation Yrotation Xrotation
									JOINT LeftHandIndex1
									{
										OFFSET 0.715260 -0.000000 -0.000000
										CHANNELS 3 Zrotation Yrotation Xrotation
										End Site
										{
											OFFSET 0.000000 0.000000 0.000000
										}
									}
								}
								JOINT LThumb
								{
									OFFSET 0.000000 0.000000 0.000000
									CHANNELS 3 Zrotation Yrotation Xrotation
									End Site
									{
										OFFSET 0.000000 0.000000 0.000000
									}
								}
							}
						}
					}
				}
				JOINT RightShoulder
				{
					OFFSET 0.000000 0.000000 0.000000
					CHANNELS 3 Zrotation Yrotation Xrotation
					JOINT RightArm
					{
						OFFSET -3.136600 1.374050 -0.404650
						CHANNELS 3 Zrotation Yrotation Xrotation
						JOINT RightForeArm
						{
							OFFSET -5.241900 -0.000000 -0.000000
							CHANNELS 3 Zrotation Yrotation Xrotation
							JOINT RightHand
							{
								OFFSET -3.444170 -0.000000 -0.000000
								CHANNELS 3 Zrotation Yrotation Xrotation
								JOINT RightFingerBase
								{
									OFFSET 0.000000 0.000000 0.000000
									CHANNELS 3 Zrotation Yrotation Xrotation
									JOINT RightHandIndex1
									{
										OFFSET -0.622530 -0.000000 -0.000000
										CHANNELS 3 Zrotation Yrotation Xrotation
										End Site
										{
											OFFSET 0.000000 0.000000 0.000000
										}
									}
								}
								JOINT RThumb
								{
									OFFSET 0.000000 0.000000 0.000000
									CHANNELS 3 Zrotation Yrotation Xrotation
									End Site
									{
										OFFSET 0.000000 0.000000 0.000000
									}
								}
							}
						}
					}
				}
			}
		}
	}
}
MOTION
Frames: 9
Frame Time: 0.008333
-6.905228 8.728623 -3.682628 -14.526088 72.134032 -12.957432 6.432637 0.250577 -3.705504 28.619232 28.255350 -75.122769 33.837332 16.105953 127.781918 -3.009628 -51.668866 -10.002639 1.258400 -7.111400 -20.045800 -4.475113 0.187677 -2.734362 -16.817294 -21.821792 -78.111877 -30.106392 -18.487211 117.463531 -3.511676 13.912042 -11.125583 -4.814600 13.171900 -40.015600 -4.375509 -4.521990 73.724773 -0.214660 -4.167738 1.699455 5.263200 -1.902532 -4.719631 -12.093997 -21.006049 7.902287 19.093528 -27.598334 -13.006849 9.075400 -13.874700 -0.383800 0.774886 -3.151467 2.856621 -19.411202 -2.579170 -4.127144 68.803117 -55.611663 -58.170340 -0.718586 -3.102507 -2.078200 25.287183 -9.031673 -2.758800 -7.125000 0.000000 0.000000 -0.376900 23.720000 0.193500 -3.706515 3.761775 1.230747 71.624335 7.255360 9.589284 -89.644364 59.048054 -68.357777 0.717846 1.577950 -18.175798 -24.444979 -8.262790 4.557200 7.125000 0.000000 0.000000 1.180700 -40.560200 0.129300 
-6.925288 8.710339 -3.575849 -13.285268 72.403436 -11.678209 6.397704 0.226369 -3.748203 28.734409 27.568525 -74.760007 33.722358 16.192962 127.271477 -2.767641 -51.451585 -10.460139 1.371500 -7.411600 -20.940700 -4.483716 0.187966 -2.709061 -16.784408 -22.241276 -78.722185 -30.380571 -18.338919 118.392799 -3.492227 13.307487 -11.895857 -4.776900 13.128000 -39.849600 -4.364270 -4.684721 73.889036 -0.245135 -4.416978 1.674401 5.181191 -1.977781 -4.763603 -12.087920 -21.162308 7.948008 19.084902 -27.812891 -13.007790 9.045600 -13.985200 -0.344400 0.765673 -3.134913 2.865549 -19.302677 -2.443773 -3.784460 68.600214 -55.540058 -57.969236 -0.719972 -3.096925 -1.952612 25.206723 -9.068149 -2.769200 -7.125000 0.000000 0.000000 -0.442500 23.677000 0.227600 -3.721034 3.760175 1.227166 71.626810 7.507799 9.366724 -89.858924 59.055256 -68.545147 0.729205 1.593188 -18.265664 -24.809721 -8.326095 4.670200 7.125000 0.000000 0.000000 0.849400 -40.676100 0.090600 
-6.945557 8.696339 -3.469487 -12.125057 72.664602 -10.401615 6.355722 0.197529 -3.794635 28.845091 26.861944 -74.468995 33.595054 16.285204 126.726953 -2.515245 -51.196628 -10.887535 1.493200 -7.719200 -21.864400 -4.492609 0.187673 -2.684503 -16.635802 -22.667544 -79.428068 -30.641042 -18.188684 119.307261 -3.455677 12.686465 -12.551552 -4.714600 13.055100 -39.574900 -4.294937 -4.874673 73.963945 -0.272040 -4.658263 1.659263 5.087606 -2.052616 -4.793478 -12.084468 -21.309422 8.000791 19.083240 -28.015242 -13.027623 9.022500 -14.089300 -0.315600 0.755542 -3.118120 2.875861 -19.238799 -2.328101 -3.447051 68.367519 -55.455786 -57.732883 -0.715342 -3.090078 -1.952154 25.036281 -9.060237 -2.749800 -7.125000 0.000000 0.000000 -0.573400 23.681600 0.294800 -3.732665 3.757041 1.224123 71.615292 7.741269 9.154547 -90.075711 59.064637 -68.735020 0.736576 1.608678 -18.406582 -25.136801 -8.404345 4.783900 7.125000 0.000000 0.000000 0.554100 -40.805900 0.057300 
-6.966035 8.686308 -3.363231 -10.998518 72.911277 -9.081648 6.308422 0.166478 -3.843023 28.941436 26.155851 -74.250760 33.456557 16.382140 126.153697 -2.256452 -50.906759 -11.277985 1.624200 -8.034900 -22.820300 -4.501616 0.187939 -2.661652 -16.400758 -23.088154 -80.211753 -30.886684 -18.038689 120.193707 -3.409889 12.068630 -13.138671 -4.647400 12.975400 -39.276500 -4.187223 -5.076973 73.943797 -0.294183 -4.885151 1.654890 4.992371 -2.125568 -4.804741 -12.085337 -21.449300 8.049815 19.086005 -28.208445 -13.066091 9.002900 -14.187700 -0.295600 0.744785 -3.101696 2.886684 -19.228304 -2.232027 -3.127506 68.116057 -55.363608 -57.472626 -0.705927 -3.081285 -2.042354 24.787612 -9.014262 -2.705400 -7.125000 0.000000 0.000000 -0.761600 23.726000 0.390800 -3.740998 3.752056 1.221901 71.582485 7.953807 8.955475 -90.306822 59.077431 -68.936908 0.740654 1.624265 -18.591560 -25.432733 -8.491541 4.896600 7.125000 0.000000 0.000000 0.288100 -40.943300 0.028800 
-6.986618 8.681189 -3.257078 -9.779959 73.137882 -7.615466 6.256919 0.135612 -3.891788 28.986839 25.450297 -74.070679 33.305674 16.485561 125.546453 -1.995136 -50.578913 -11.615071 1.758400 -8.343600 -23.762700 -4.510278 0.191220 -2.641664 -16.152488 -23.477630 -81.024451 -31.114158 -17.893133 121.029076 -3.368936 11.539743 -13.657315 -4.568800 12.881100 -38.925100 -4.084500 -5.267359 73.848481 -0.312485 -5.099050 1.659498 4.905922 -2.197451 -4.799049 -12.083576 -21.578013 8.100871 19.092817 -28.387579 -13.126091 8.988000 -14.278300 -0.289800 0.733569 -3.084715 2.897370 -19.271136 -2.144431 -2.834164 67.851035 -55.266799 -57.197002 -0.693261 -3.070773 -2.185496 24.480542 -8.935003 -2.640800 -7.125000 0.000000 0.000000 -0.993200 23.805200 0.507900 -3.746540 3.745169 1.220381 71.535911 8.151517 8.778750 -90.546785 59.092564 -69.144599 0.742507 1.639590 -18.799075 -25.703182 -8.584296 5.007800 7.125000 0.000000 0.000000 0.045800 -41.084800 0.004400 
-7.007201 8.681607 -3.150613 -8.396250 73.346758 -5.951461 6.200894 0.105497 -3.940552 28.960515 24.737849 -73.902846 33.140771 16.596562 124.899491 -1.736743 -50.218003 -11.888346 1.890300 -8.633600 -24.655800 -4.520040 0.197917 -2.624393 -15.933520 -23.838598 -81.819583 -31.322136 -17.755426 121.796235 -3.344126 11.147050 -14.125688 -4.476800 12.769200 -38.510500 -4.008895 -5.438414 73.704073 -0.327872 -5.307734 1.670155 4.833436 -2.270434 -4.780388 -12.076823 -21.692089 8.152533 19.104503 -28.547603 -13.204428 8.978600 -14.358800 -0.298000 0.721522 -3.066673 2.908648 -19.362010 -2.059236 -2.572119 67.562909 -55.161242 -56.896194 -0.680084 -3.057752 -2.343783 24.157392 -8.846601 -2.572300 -7.125000 0.000000 0.000000 -1.236900 23.891400 0.630100 -3.750556 3.736347 1.219011 71.486114 8.337478 8.634172 -90.793274 59.109008 -69.354898 0.743256 1.653517 -18.999928 -25.944236 -8.674533 5.112000 7.125000 0.000000 0.000000 -0.169900 -41.220100 -0.015800 
-7.027679 8.688398 -3.043520 -6.825349 73.539850 -4.082071 6.139358 0.075763 -3.989213 28.853586 24.012026 -73.729111 32.961090 16.715577 124.210458 -1.484418 -49.823952 -12.087559 2.014000 -8.895200 -25.468100 -4.531514 0.208268 -2.609851 -15.754775 -24.167907 -82.584058 -31.510269 -17.627060 122.492066 -3.334987 10.879355 -14.542336 -4.372600 12.640300 -38.036700 -3.966703 -5.588153 73.528673 -0.338879 -5.510099 1.685396 4.780975 -2.344447 -4.750414 -12.068141 -21.791473 8.201771 19.122942 -28.688753 -13.300522 8.975200 -14.429200 -0.318700 0.708852 -3.048316 2.920768 -19.505006 -1.980954 -2.344086 67.250552 -55.045206 -56.565321 -0.667684 -3.041468 -2.484300 23.853979 -8.752746 -2.505900 -7.125000 0.000000 0.000000 -1.466600 23.979200 0.744200 -3.752974 3.725684 1.217645 71.430083 8.510226 8.519075 -91.039176 59.126008 -69.562061 0.744115 1.665320 -19.169863 -26.156069 -8.750146 5.202500 7.125000 0.000000 0.000000 -0.360200 -41.334900 -0.032600 
-7.047530 8.701563 -2.935592 -5.082355 73.726051 -2.033689 6.071060 0.045311 -4.038178 28.669611 23.268425 -73.545492 32.765246 16.842885 123.476901 -1.243475 -49.402615 -12.201069 2.124700 -9.121000 -26.174700 -4.547755 0.219967 -2.596436 -15.587466 -24.500869 -83.308503 -31.679828 -17.508208 123.121582 -3.331543 10.630782 -14.970368 -4.285800 12.531300 -37.638300 -3.943979 -5.726593 73.343821 -0.343987 -5.706920 1.701554 4.747983 -2.419087 -4.717415 -12.057013 -21.878329 8.247923 19.147237 -28.814112 -13.411569 8.976500 -14.491200 -0.350000 0.696054 -3.030991 2.933682 -19.700170 -1.916867 -2.145331 66.916651 -54.917631 -56.201553 -0.657283 -3.021331 -2.595291 23.609125 -8.665251 -2.450900 -7.125000 0.000000 0.000000 -1.653000 24.054400 0.836000 -3.753295 3.713897 1.215977 71.351536 8.659606 8.422431 -91.277354 59.143747 -69.761884 0.745155 1.675352 -19.307067 -26.340362 -8.809619 5.278800 7.125000 0.000000 0.000000 -0.526700 -41.428100 -0.046400 
-7.066755 8.721205 -2.826827 -3.215000 73.905165 0.138646 5.995859 0.012973 -4.086849 28.423821 22.513953 -73.342055 32.554264 16.977953 122.698107 -1.002699 -48.950498 -12.268259 2.225600 -9.321000 -26.804800 -4.569330 0.231574 -2.583709 -15.408882 -24.834616 -83.987619 -31.831926 -17.398419 123.690567 -3.329109 10.379810 -15.402674 -4.210200 12.435000 -37.288800 -3.925916 -5.861258 73.164713 -0.342945 -5.896707 1.716010 4.729649 -2.492845 -4.687502 -12.047228 -21.954463 8.286402 19.176428 -28.925615 -13.529885 8.981200 -14.545700 -0.386300 0.683218 -3.015680 2.947780 -19.948787 -1.872518 -1.975017 66.555204 -54.774537 -55.794024 -0.649729 -2.996727 -2.674572 23.450952 -8.592010 -2.413700 -7.125000 0.000000 0.000000 -1.774700 24.107400 0.895500 -3.752130 3.701401 1.213616 71.257216 8.780300 8.342228 -91.505640 59.161561 -69.952641 0.746809 1.682826 -19.396611 -26.490054 -8.847113 5.335500 7.125000 0.000000 0.000000 -0.663000 -41.491200 -0.057400 
